#Comment line ignore any data following # character
#Hierarchical Translation and Rotation (.htr) file
[Header]		#Header keywords are followed by a single value
FileType htr		#Single word string
DataType HTRS		#Translation followed by rotation and scale data
FileVersion 1		#integer
NumSegments 15		#integer
NumFrames 4		#integer
DataFrameRate 60		#integer, data frame rate in this file
EulerRotationOrder ZYX
CalibrationUnits mm
RotationUnits Degrees
GlobalAxisofGravity Y
BoneLengthAxis Y
ScaleFactor 1.000000
[SegmentNames&Hierarchy]
#CHILD	PARENT
1cou	1buste
1buste	1bassin
1brasG	1buste
1brasD	1buste
1avbrasG	1brasG
1avbrasD	1brasD
1mainG	1avbrasG
1mainD	1avbrasD
1bassin	GLOBAL
1cuisseG	1bassin
1cuisseD	1bassin
1moletG	1cuisseG
1moletD	1cuisseD
1piedG	1moletG
1piedD	1moletD
[BasePosition]
#SegmentName Tx, Ty, Tz, Rx, Ry, Rz, BoneLength
1cou	0.000002	394.639771	0.000003	47.447697	-6.500580	2.097482	232.574402
1buste	0.331046	98.159424	9.920088	5.813737	-6.959647	-0.900074	394.639771
1brasG	222.293304	333.760773	-3.143221	-5.521868	-4.449825	-174.025208	338.016541
1brasD	-186.675308	347.235016	-30.968008	-5.508482	16.777920	169.824814	318.101379
1avbrasG	0.000004	338.016571	-0.000002	34.403133	17.432653	23.106703	253.821075
1avbrasD	-0.000007	318.101410	-0.000013	32.381824	-10.529597	-11.344105	276.946075
1mainG	0.000006	253.821091	-0.000001	-3.773718	-0.485368	-1.748444	73.639816
1mainD	-0.000031	276.946106	-0.000010	-3.909555	0.199285	0.225476	80.942635
1bassin	396.031860	1037.839600	833.112305	178.297836	19.764000	-179.799622	97.859962
1cuisseG	108.625954	-0.934603	-40.474510	172.403458	-4.353497	-0.165467	517.714233
1cuisseD	-106.972656	-1.326527	-48.733826	172.076172	-12.757409	2.045154	501.698334
1moletG	0.000006	517.714233	-0.000009	157.872192	5.331374	176.676331	488.075745
1moletD	-0.000005	501.698303	0.000003	156.316269	3.295414	-177.725830	511.880615
1piedG	0.000002	488.075745	-0.000006	99.880898	-0.000004	0.000000	242.425140
1piedD	-0.000009	511.880646	-0.000013	102.622849	0.000000	0.000000	237.138092
#Beginning of Data. Separated by tabs
[1cou]
#Fr	Tx	Ty	Tz	Rx	Ry	Rz	SF
38	0.000005	-43.017944	-0.000003	-19.781595	-6.004566	6.927884	0.949693
39	-0.000018	-43.573730	-0.000028	-20.453062	-7.229537	9.415499	0.950225
40	0.000001	-43.813782	-0.000023	-20.992622	-8.559055	12.657185	0.950834
41	-0.000003	-43.606232	-0.000015	-21.401304	-9.569514	16.139420	0.949692
[1buste]
#Fr	Tx	Ty	Tz	Rx	Ry	Rz	SF
38	4.216548	-17.215363	24.061464	16.831785	11.338610	-1.611676	0.890994
39	4.610810	-17.136230	23.453318	16.376040	10.871342	-2.056238	0.889586
40	4.938246	-16.865410	22.575235	15.702452	10.132985	-2.530361	0.888978
41	5.366127	-16.519852	21.766729	15.031464	8.970102	-3.163780	0.889504
[1brasG]
#Fr	Tx	Ty	Tz	Rx	Ry	Rz	SF
38	-55.677948	-29.844788	21.022205	51.602234	11.664063	29.038271	0.909725
39	-55.572388	-30.249237	21.944666	52.261936	13.893670	29.994255	0.910997
40	-55.658630	-30.725586	22.694273	52.977402	15.843813	30.612303	0.911715
41	-55.951462	-31.211517	23.304640	53.776859	17.459316	31.092808	0.910822
[1brasD]
#Fr	Tx	Ty	Tz	Rx	Ry	Rz	SF
38	7.385574	-53.666382	50.275829	39.411846	-9.743056	-0.672071	0.900911
39	6.664154	-53.741028	50.697517	37.507549	-10.551498	0.811296	0.904610
40	6.984375	-55.490967	51.603970	35.875050	-11.399827	2.104240	0.903985
41	6.701889	-57.075378	52.277267	34.651352	-12.450875	3.537659	0.904897
[1avbrasG]
#Fr	Tx	Ty	Tz	Rx	Ry	Rz	SF
38	-0.000003	-30.514496	-0.000007	36.594509	-24.480055	-7.031032	1.142535
39	0.000011	-30.084473	-0.000018	35.223309	-23.196814	-5.076296	1.143105
40	0.000015	-29.841766	-0.000025	33.343884	-21.981628	-3.551470	1.142509
41	0.000014	-30.143799	0.000016	31.152090	-21.160618	-2.958076	1.138950
[1avbrasD]
#Fr	Tx	Ty	Tz	Rx	Ry	Rz	SF
38	0.000020	-31.520355	0.000012	27.479450	13.098836	6.438791	1.014186
39	0.000010	-30.343750	0.000010	26.120029	12.920367	6.206051	1.012585
40	0.000013	-30.542450	-0.000007	24.568562	12.684484	5.914265	1.010695
41	0.000015	-30.252472	0.000041	22.606304	12.194929	5.358505	1.007623
[1mainG]
#Fr	Tx	Ty	Tz	Rx	Ry	Rz	SF
38	-0.000009	36.178299	0.000021	1.637847	0.366846	1.707184	1.112220
39	0.000000	36.322952	0.000034	1.606429	0.365667	1.675883	1.113236
40	-0.000001	36.171799	0.000027	1.530664	0.364285	1.639369	1.113626
41	0.000001	35.268539	0.000007	1.408512	0.361424	1.604179	1.111584
[1mainD]
#Fr	Tx	Ty	Tz	Rx	Ry	Rz	SF
38	0.000043	3.928619	0.000022	1.146755	-0.175812	-0.719890	0.985947
39	0.000044	3.485229	0.000012	1.066980	-0.173614	-0.709040	0.985509
40	0.000044	2.961884	0.000009	0.975572	-0.172885	-0.697209	0.985027
41	0.000043	2.111298	0.000046	0.861947	-0.174338	-0.672746	0.983738
[1bassin]
#Fr	Tx	Ty	Tz	Rx	Ry	Rz	SF
38	-162.493134	-270.987610	-1240.091797	-147.282684	-68.738319	169.679337	0.898402
39	-169.240311	-280.701538	-1228.157715	-144.399475	-67.616425	166.284393	0.896562
40	-176.280365	-290.527039	-1215.121460	-141.658630	-66.501778	163.093018	0.895533
41	-183.746674	-299.843994	-1201.077271	-138.903671	-65.367729	159.716553	0.895584
[1cuisseG]
#Fr	Tx	Ty	Tz	Rx	Ry	Rz	SF
38	-7.874176	-2.469539	-8.935898	-56.301468	-27.456976	-12.076825	0.954209
39	-8.199806	-2.350643	-9.604424	-57.155163	-29.606983	-9.619842	0.951457
40	-8.488426	-2.189450	-10.074482	-58.239025	-31.771133	-7.540985	0.949881
41	-8.703392	-2.010525	-10.632156	-57.090958	-32.587811	-8.373018	0.952522
[1cuisseD]
#Fr	Tx	Ty	Tz	Rx	Ry	Rz	SF
38	3.843857	-3.518571	11.399338	-65.441856	-15.789140	-7.095467	1.053950
39	3.870697	-3.503447	12.237560	-65.390984	-17.028206	-7.115598	1.051079
40	3.928780	-3.454938	12.929161	-65.224258	-18.142403	-7.344080	1.048620
41	3.861496	-3.425650	13.795609	-64.820076	-19.057148	-7.454636	1.046640
[1moletG]
#Fr	Tx	Ty	Tz	Rx	Ry	Rz	SF
38	-0.000012	-23.706940	0.000001	-54.504143	0.951680	-8.987440	0.912025
39	-0.000016	-25.131683	0.000017	-54.953949	3.557853	-8.219010	0.919238
40	0.000024	-25.947388	0.000014	-56.129807	5.359799	-7.859169	0.932654
41	-0.000006	-24.579926	0.000024	-56.662117	4.613194	-9.274775	0.936929
[1moletD]
#Fr	Tx	Ty	Tz	Rx	Ry	Rz	SF
38	0.000013	27.066650	-0.000014	-71.660301	-3.019120	-22.656469	0.880739
39	-0.000004	25.626404	0.000024	-72.512627	-3.533181	-24.557728	0.881038
40	-0.000002	24.392395	0.000037	-73.200447	-4.054565	-26.614918	0.880684
41	0.000002	23.399231	0.000034	-73.833755	-4.491153	-28.416813	0.880296
[1piedG]
#Fr	Tx	Ty	Tz	Rx	Ry	Rz	SF
38	0.000007	-42.938568	-0.000014	10.040248	-0.000002	-0.000011	1.016125
39	0.000010	-39.417786	0.000005	10.116362	-0.000001	-0.000004	1.002366
40	-0.000031	-32.869781	0.000027	10.590170	-0.000001	-0.000004	1.000856
41	0.000001	-30.783539	0.000036	10.680560	0.000001	-0.000001	1.002810
[1piedD]
#Fr	Tx	Ty	Tz	Rx	Ry	Rz	SF
38	-0.000021	-61.047485	-0.000008	15.834067	0.000001	0.000001	1.022482
39	-0.000031	-60.894440	0.000027	17.107498	-0.000001	0.000005	1.020032
40	-0.000011	-61.075470	0.000034	18.476475	0.000000	0.000000	1.020281
41	0.000002	-61.274384	0.000022	19.892439	0.000001	0.000000	1.019416
[EndOfFile]
